<svg xmlns="http://www.w3.org/2000/svg" viewBox="0 0 1219.2 685.8" width="1219.2" height="685.8">
  <defs>
    <linearGradient id="sumBg" x1="0" y1="0" x2="0" y2="1">
      <stop offset="0%" stop-color="#0D1B2A" />
      <stop offset="100%" stop-color="#0A1628" />
    </linearGradient>
  </defs>

  <g id="bg">
    <rect x="0" y="0" width="1219.2" height="685.8" fill="url(#sumBg)" />
    <line x1="0" y1="180" x2="1280" y2="180" stroke="#1B3A5C" stroke-width="0.3" />
    <line x1="0" y1="360" x2="1280" y2="360" stroke="#1B3A5C" stroke-width="0.3" />
    <line x1="0" y1="540" x2="1280" y2="540" stroke="#1B3A5C" stroke-width="0.3" />
    <line x1="320" y1="0" x2="320" y2="720" stroke="#1B3A5C" stroke-width="0.3" />
    <line x1="640" y1="0" x2="640" y2="720" stroke="#1B3A5C" stroke-width="0.3" />
    <line x1="960" y1="0" x2="960" y2="720" stroke="#1B3A5C" stroke-width="0.3" />
    <rect x="0" y="0" width="1280" height="3" fill="#4A90D9" />
    <rect x="0" y="717" width="1280" height="3" fill="#4A90D9" />
  </g>

  <g id="header" data-anim="true">
<text x="80" y="60" font-family="Consolas, monospace" font-size="12" fill="#4A90D9" letter-spacing="3">SUMMARY</text>
    <text x="80" y="100" font-family="Consolas, monospace" font-size="36" fill="#FFFFFF">总结与下一步</text>
    <line x1="80" y1="115" x2="300" y2="115" stroke="#4A90D9" stroke-width="2" />
  </g>

  <g id="key-takeaways" data-anim="true">
<rect x="80" y="150" width="560" height="300" fill="#4A90D9" opacity="0.1" />
    <text x="100" y="190" font-family="Consolas, monospace" font-size="18" fill="#4A90D9">关键要点</text>
    <line x1="100" y1="200" x2="220" y2="200" stroke="#4A90D9" stroke-width="1" />
    <text x="100" y="230" font-family="Arial, sans-serif" font-size="14" fill="#FFFFFF">• 微服务架构确保系统可扩展性</text>
    <text x="100" y="260" font-family="Arial, sans-serif" font-size="14" fill="#FFFFFF">• 事件驱动实现服务间解耦</text>
    <text x="100" y="290" font-family="Arial, sans-serif" font-size="14" fill="#FFFFFF">• 云原生技术栈保障高可用</text>
    <text x="100" y="320" font-family="Arial, sans-serif" font-size="14" fill="#FFFFFF">• 完善的测试策略确保质量</text>
    <text x="100" y="350" font-family="Arial, sans-serif" font-size="14" fill="#FFFFFF">• 自动化部署提升效率</text>
    <text x="100" y="380" font-family="Arial, sans-serif" font-size="14" fill="#FFFFFF">• 9 个月完成从设计到上线</text>
  </g>

  <g id="next-steps" data-anim="true">
<rect x="660" y="150" width="540" height="300" fill="#4A90D9" opacity="0.05" />
    <text x="680" y="190" font-family="Consolas, monospace" font-size="18" fill="#4A90D9">下一步行动</text>
    <line x1="680" y1="200" x2="820" y2="200" stroke="#4A90D9" stroke-width="1" />
    <text x="680" y="230" font-family="Arial, sans-serif" font-size="14" fill="#FFFFFF">1. 成立技术委员会</text>
    <text x="680" y="260" font-family="Arial, sans-serif" font-size="14" fill="#FFFFFF">2. 完成详细设计文档</text>
    <text x="680" y="290" font-family="Arial, sans-serif" font-size="14" fill="#FFFFFF">3. 搭建开发环境</text>
    <text x="680" y="320" font-family="Arial, sans-serif" font-size="14" fill="#FFFFFF">4. 启动第一阶段开发</text>
    <text x="680" y="350" font-family="Arial, sans-serif" font-size="14" fill="#FFFFFF">5. 建立代码审查机制</text>
    <text x="680" y="380" font-family="Arial, sans-serif" font-size="14" fill="#FFFFFF">6. 制定发布计划</text>
  </g>

  <g id="contact">
    <rect x="80" y="480" width="1120" height="100" fill="#4A90D9" opacity="0.15" />
    <text x="640" y="530" font-family="Consolas, monospace" font-size="24" fill="#FFFFFF" text-anchor="middle">开始构建下一代工程系统</text>
    <text x="640" y="560" font-family="Arial, sans-serif" font-size="16" fill="#7A9CC6" text-anchor="middle">engineering@team.com | github.com/engineering-team</text>
  </g>

  <g id="footer">
    <text x="1200" y="694" text-anchor="end" font-family="Consolas, monospace" font-size="11" fill="#4A7AAB">08</text>
    <line x1="80" y1="694" x2="120" y2="694" stroke="#4A7AAB" stroke-width="0.5" />
  </g>
</svg>
